# xmcd
#
# Track frame offsets:
# 150
# 11847
# 25027
# 36197
# 47882
# 58997
# 81062
# 95782
# 106637
# 116980
#
# Disc length: 1737 seconds
#
#
# Revision: 0
# Processed by: cddbd v1.5.1PL0 Copyright (c) Steve Scherf et al.
# Submitted via: FreeRIP 2.942 
#
DISCID=8206c70a
DTITLE=Varios autores - SUPERMUSIC más
DYEAR=1900
DGENRE=Ballad
TTITLE0=Only You - The Platters
TTITLE1=Sixteen Candles - The Crest
TTITLE2=MR. Blue - The Fleetwoods
TTITLE3=The Great Pretender - The Platters
TTITLE4=It's Just A Matter Of Time - Brook Benton
TTITLE5=The Best Days OF My Life - David Soul
TTITLE6=Crying - Roy Orbison
TTITLE7=Red Sails In The Sunset -The Platters
TTITLE8=Love Letters In The Sand - Pat Boone
TTITLE9=Stranger In Paradise - The Four Aces
EXTD=
EXTT0=Baladas
EXTT1=Baladas
EXTT2=Baladas
EXTT3=Baladas
EXTT4=Baladas
EXTT5=Baladas
EXTT6=Baladas
EXTT7=Baladas
EXTT8=Baladas
EXTT9=Baladas
PLAYORDER=
